<svg width="18" height="18" viewBox="0 0 18 18" fill="none" xmlns="http://www.w3.org/2000/svg">
<path d="M5 11.7C5.55 11.7 6 12.105 6 12.6C6 13.095 5.55 13.5 5 13.5C4.45 13.5 4 13.095 4 12.6C4 12.105 4.45 11.7 5 11.7ZM13 11.7C13.55 11.7 14 12.105 14 12.6C14 13.095 13.55 13.5 13 13.5H9C8.45 13.5 8 13.095 8 12.6C8 12.105 8.45 11.7 9 11.7H13ZM15 16.2H3C2.45 16.2 2 15.795 2 15.3V9.9H16V15.3C16 15.795 15.55 16.2 15 16.2ZM3 3.6H4V4.5C4 4.995 4.45 5.4 5 5.4C5.55 5.4 6 4.995 6 4.5V3.6H12V4.5C12 4.995 12.45 5.4 13 5.4C13.55 5.4 14 4.995 14 4.5V3.6H15C15.55 3.6 16 4.005 16 4.5V8.1H2V4.5C2 4.005 2.45 3.6 3 3.6ZM15 1.8H14V0.9C14 0.405 13.55 0 13 0C12.45 0 12 0.405 12 0.9V1.8H6V0.9C6 0.405 5.55 0 5 0C4.45 0 4 0.405 4 0.9V1.8H3C1.35 1.8 0 3.015 0 4.5V15.3C0 16.785 1.35 18 3 18H15C16.65 18 18 16.785 18 15.3V4.5C18 3.015 16.65 1.8 15 1.8Z" fill="#898989"/>
</svg>
