<svg width="25" height="25" viewBox="0 0 25 25" fill="none" xmlns="http://www.w3.org/2000/svg">
<path fill-rule="evenodd" clip-rule="evenodd" d="M16.5778 15.6006H17.6641L24.5253 22.4756L22.4766 24.5243L15.6016 17.6631V16.5768L15.2303 16.1918C13.6628 17.5393 11.6278 18.3506 9.41406 18.3506C4.47781 18.3506 0.476562 14.3493 0.476562 9.41308C0.476562 4.47684 4.47781 0.475586 9.41406 0.475586C14.3503 0.475586 18.3516 4.47684 18.3516 9.41308C18.3516 11.6268 17.5403 13.6618 16.1928 15.2293L16.5778 15.6006ZM3.22659 9.4131C3.22659 12.8368 5.99034 15.6006 9.41409 15.6006C12.8378 15.6006 15.6016 12.8368 15.6016 9.4131C15.6016 5.98934 12.8378 3.22559 9.41409 3.22559C5.99034 3.22559 3.22659 5.98934 3.22659 9.4131Z" fill="#BCBCBC"/>
</svg>
